<mxfile host="app.diagrams.net" modified="2022-10-18T20:04:00.623Z" agent="5.0 (Windows NT 10.0; Win64; x64) AppleWebKit/537.36 (KHTML, like Gecko) Chrome/106.0.0.0 Safari/537.36" etag="G4FcMrgim3wK9jSWdxpk" version="20.4.1" type="github">
  <diagram id="0QVSNSebHSv-WK6t7Xm3" name="PÃ¡gina-1">
    <mxGraphModel dx="868" dy="450" grid="1" gridSize="10" guides="1" tooltips="1" connect="1" arrows="1" fold="1" page="1" pageScale="1" pageWidth="827" pageHeight="1169" math="0" shadow="0">
      <root>
        <mxCell id="0" />
        <mxCell id="1" parent="0" />
        <mxCell id="uOadU0x5IdO1Kqkm3Mmz-12" value="" style="curved=1;endArrow=classic;html=1;rounded=0;fontSize=21;exitX=1;exitY=1;exitDx=0;exitDy=0;entryX=1;entryY=0;entryDx=0;entryDy=0;" edge="1" parent="1" source="uOadU0x5IdO1Kqkm3Mmz-6" target="uOadU0x5IdO1Kqkm3Mmz-15">
          <mxGeometry width="50" height="50" relative="1" as="geometry">
            <mxPoint x="333.03999999999996" y="103" as="sourcePoint" />
            <mxPoint x="360" y="340" as="targetPoint" />
            <Array as="points">
              <mxPoint x="320" y="290" />
              <mxPoint x="340" y="350" />
            </Array>
          </mxGeometry>
        </mxCell>
        <mxCell id="uOadU0x5IdO1Kqkm3Mmz-35" value="" style="curved=1;endArrow=classic;html=1;rounded=0;fontSize=21;exitX=0;exitY=1;exitDx=0;exitDy=0;entryX=0.5;entryY=0;entryDx=0;entryDy=0;" edge="1" parent="1" source="uOadU0x5IdO1Kqkm3Mmz-6" target="uOadU0x5IdO1Kqkm3Mmz-14">
          <mxGeometry width="50" height="50" relative="1" as="geometry">
            <mxPoint x="390" y="250" as="sourcePoint" />
            <mxPoint x="440" y="200" as="targetPoint" />
            <Array as="points">
              <mxPoint x="280" y="170" />
              <mxPoint x="260" y="340" />
            </Array>
          </mxGeometry>
        </mxCell>
        <mxCell id="uOadU0x5IdO1Kqkm3Mmz-1" value="&lt;b&gt;&lt;font style=&quot;font-size: 21px;&quot;&gt;Internet RIU&lt;/font&gt;&lt;/b&gt;" style="ellipse;shape=cloud;whiteSpace=wrap;html=1;" vertex="1" parent="1">
          <mxGeometry x="590" y="20" width="190" height="130" as="geometry" />
        </mxCell>
        <mxCell id="uOadU0x5IdO1Kqkm3Mmz-3" value="" style="endArrow=classic;html=1;rounded=0;fontSize=21;entryX=0.5;entryY=0;entryDx=0;entryDy=0;entryPerimeter=0;" edge="1" parent="1" source="uOadU0x5IdO1Kqkm3Mmz-1" target="uOadU0x5IdO1Kqkm3Mmz-32">
          <mxGeometry width="50" height="50" relative="1" as="geometry">
            <mxPoint x="390" y="260" as="sourcePoint" />
            <mxPoint x="660" y="170" as="targetPoint" />
          </mxGeometry>
        </mxCell>
        <mxCell id="uOadU0x5IdO1Kqkm3Mmz-4" value="Firewall&lt;br&gt;UNPAZ" style="whiteSpace=wrap;html=1;aspect=fixed;fontSize=21;resizable=1;resizeHeight=1;resizeWidth=1;perimeter=none;" vertex="1" parent="1">
          <mxGeometry x="650" y="250" width="80" height="80" as="geometry" />
        </mxCell>
        <mxCell id="uOadU0x5IdO1Kqkm3Mmz-6" value="Virtual Box" style="ellipse;whiteSpace=wrap;html=1;fontSize=21;" vertex="1" parent="1">
          <mxGeometry x="230" y="30" width="120" height="80" as="geometry" />
        </mxCell>
        <mxCell id="uOadU0x5IdO1Kqkm3Mmz-7" value="" style="curved=1;endArrow=classic;html=1;rounded=0;fontSize=21;exitX=0;exitY=0.5;exitDx=0;exitDy=0;exitPerimeter=0;entryX=1;entryY=0.5;entryDx=0;entryDy=0;" edge="1" parent="1" source="uOadU0x5IdO1Kqkm3Mmz-32" target="uOadU0x5IdO1Kqkm3Mmz-5">
          <mxGeometry width="50" height="50" relative="1" as="geometry">
            <mxPoint x="390" y="260" as="sourcePoint" />
            <mxPoint x="440" y="210" as="targetPoint" />
            <Array as="points">
              <mxPoint x="530" y="240" />
              <mxPoint x="430" y="232" />
            </Array>
          </mxGeometry>
        </mxCell>
        <mxCell id="uOadU0x5IdO1Kqkm3Mmz-9" value="" style="curved=1;endArrow=classic;html=1;rounded=0;fontSize=21;exitX=-0.009;exitY=0.409;exitDx=0;exitDy=0;exitPerimeter=0;" edge="1" parent="1" source="uOadU0x5IdO1Kqkm3Mmz-5" target="uOadU0x5IdO1Kqkm3Mmz-10">
          <mxGeometry width="50" height="50" relative="1" as="geometry">
            <mxPoint x="390" y="260" as="sourcePoint" />
            <mxPoint x="100" y="130" as="targetPoint" />
            <Array as="points">
              <mxPoint x="140" y="220" />
            </Array>
          </mxGeometry>
        </mxCell>
        <mxCell id="uOadU0x5IdO1Kqkm3Mmz-10" value="3 adaptadores&lt;br&gt;de red" style="ellipse;whiteSpace=wrap;html=1;fontSize=21;" vertex="1" parent="1">
          <mxGeometry x="30" y="30" width="150" height="100" as="geometry" />
        </mxCell>
        <mxCell id="uOadU0x5IdO1Kqkm3Mmz-5" value="PFSENSE" style="whiteSpace=wrap;html=1;aspect=fixed;fontSize=21;" vertex="1" parent="1">
          <mxGeometry x="236.25" y="210" width="107.5" height="107.5" as="geometry" />
        </mxCell>
        <mxCell id="uOadU0x5IdO1Kqkm3Mmz-14" value="" style="ellipse;whiteSpace=wrap;html=1;fontSize=21;" vertex="1" parent="1">
          <mxGeometry x="80" y="420" width="200" height="300" as="geometry" />
        </mxCell>
        <mxCell id="uOadU0x5IdO1Kqkm3Mmz-15" value="" style="ellipse;whiteSpace=wrap;html=1;fontSize=21;rotation=-90;" vertex="1" parent="1">
          <mxGeometry x="440" y="380" width="150" height="300" as="geometry" />
        </mxCell>
        <mxCell id="uOadU0x5IdO1Kqkm3Mmz-18" value="" style="edgeStyle=orthogonalEdgeStyle;rounded=0;orthogonalLoop=1;jettySize=auto;html=1;fontSize=21;" edge="1" parent="1" source="uOadU0x5IdO1Kqkm3Mmz-16" target="uOadU0x5IdO1Kqkm3Mmz-17">
          <mxGeometry relative="1" as="geometry" />
        </mxCell>
        <mxCell id="uOadU0x5IdO1Kqkm3Mmz-19" style="edgeStyle=orthogonalEdgeStyle;rounded=0;orthogonalLoop=1;jettySize=auto;html=1;exitX=0.5;exitY=1;exitDx=0;exitDy=0;entryX=0.5;entryY=0;entryDx=0;entryDy=0;fontSize=21;" edge="1" parent="1" source="uOadU0x5IdO1Kqkm3Mmz-16" target="uOadU0x5IdO1Kqkm3Mmz-17">
          <mxGeometry relative="1" as="geometry" />
        </mxCell>
        <mxCell id="uOadU0x5IdO1Kqkm3Mmz-16" value="" style="rounded=0;whiteSpace=wrap;html=1;fontSize=21;" vertex="1" parent="1">
          <mxGeometry x="160" y="465" width="40" height="30" as="geometry" />
        </mxCell>
        <mxCell id="uOadU0x5IdO1Kqkm3Mmz-17" value="PC-Escrit" style="rounded=0;whiteSpace=wrap;html=1;fontSize=21;" vertex="1" parent="1">
          <mxGeometry x="120" y="495" width="120" height="30" as="geometry" />
        </mxCell>
        <mxCell id="uOadU0x5IdO1Kqkm3Mmz-20" value="LAN" style="rounded=0;whiteSpace=wrap;html=1;fontSize=21;" vertex="1" parent="1">
          <mxGeometry x="120" y="525" width="120" height="30" as="geometry" />
        </mxCell>
        <mxCell id="uOadU0x5IdO1Kqkm3Mmz-22" value="" style="rounded=0;whiteSpace=wrap;html=1;fontSize=21;" vertex="1" parent="1">
          <mxGeometry x="160" y="565" width="40" height="30" as="geometry" />
        </mxCell>
        <mxCell id="uOadU0x5IdO1Kqkm3Mmz-23" value="Kali" style="rounded=0;whiteSpace=wrap;html=1;fontSize=21;" vertex="1" parent="1">
          <mxGeometry x="120" y="595" width="120" height="30" as="geometry" />
        </mxCell>
        <mxCell id="uOadU0x5IdO1Kqkm3Mmz-26" value="LAN" style="text;html=1;align=center;verticalAlign=middle;resizable=0;points=[];autosize=1;strokeColor=none;fillColor=none;fontSize=21;" vertex="1" parent="1">
          <mxGeometry x="150" y="645" width="60" height="40" as="geometry" />
        </mxCell>
        <mxCell id="uOadU0x5IdO1Kqkm3Mmz-27" value="" style="rounded=0;whiteSpace=wrap;html=1;fontSize=21;" vertex="1" parent="1">
          <mxGeometry x="424" y="480" width="40" height="30" as="geometry" />
        </mxCell>
        <mxCell id="uOadU0x5IdO1Kqkm3Mmz-28" value="Pag WEB" style="rounded=0;whiteSpace=wrap;html=1;fontSize=21;" vertex="1" parent="1">
          <mxGeometry x="390" y="510" width="114" height="30" as="geometry" />
        </mxCell>
        <mxCell id="uOadU0x5IdO1Kqkm3Mmz-29" value="DMZ" style="rounded=0;whiteSpace=wrap;html=1;fontSize=21;" vertex="1" parent="1">
          <mxGeometry x="390" y="540" width="114" height="30" as="geometry" />
        </mxCell>
        <mxCell id="uOadU0x5IdO1Kqkm3Mmz-30" value="Server&lt;br&gt;de correo" style="ellipse;whiteSpace=wrap;html=1;fontSize=21;" vertex="1" parent="1">
          <mxGeometry x="520" y="485" width="120" height="80" as="geometry" />
        </mxCell>
        <mxCell id="uOadU0x5IdO1Kqkm3Mmz-31" value="DMZ" style="text;html=1;align=center;verticalAlign=middle;resizable=0;points=[];autosize=1;strokeColor=none;fillColor=none;fontSize=21;" vertex="1" parent="1">
          <mxGeometry x="480" y="565" width="70" height="40" as="geometry" />
        </mxCell>
        <mxCell id="uOadU0x5IdO1Kqkm3Mmz-32" value="" style="sketch=0;aspect=fixed;pointerEvents=1;shadow=0;dashed=0;html=1;strokeColor=none;labelPosition=center;verticalLabelPosition=bottom;verticalAlign=top;align=center;fillColor=#00188D;shape=mxgraph.mscae.enterprise.firewall;fontSize=21;" vertex="1" parent="1">
          <mxGeometry x="650" y="180" width="79.55" height="70" as="geometry" />
        </mxCell>
        <mxCell id="uOadU0x5IdO1Kqkm3Mmz-39" value="WAN 170.210.178.80&lt;br&gt;LAN 172.17.1.1" style="text;html=1;align=center;verticalAlign=middle;resizable=0;points=[];autosize=1;strokeColor=none;fillColor=none;fontSize=21;" vertex="1" parent="1">
          <mxGeometry x="580" y="330" width="220" height="60" as="geometry" />
        </mxCell>
        <mxCell id="uOadU0x5IdO1Kqkm3Mmz-41" value="" style="fontColor=#0066CC;verticalAlign=top;verticalLabelPosition=bottom;labelPosition=center;align=center;html=1;outlineConnect=0;fillColor=#CCCCCC;strokeColor=#6881B3;gradientColor=none;gradientDirection=north;strokeWidth=2;shape=mxgraph.networks.pc;fontSize=21;" vertex="1" parent="1">
          <mxGeometry x="450" y="210" width="100" height="70" as="geometry" />
        </mxCell>
        <mxCell id="uOadU0x5IdO1Kqkm3Mmz-45" value="PC Sergio&lt;br&gt;172.17.2.254" style="text;html=1;align=center;verticalAlign=middle;resizable=0;points=[];autosize=1;strokeColor=none;fillColor=none;fontSize=21;" vertex="1" parent="1">
          <mxGeometry x="425" y="280" width="150" height="60" as="geometry" />
        </mxCell>
        <mxCell id="uOadU0x5IdO1Kqkm3Mmz-46" value="WAN&lt;br&gt;172.17.2.149" style="text;html=1;align=center;verticalAlign=middle;resizable=0;points=[];autosize=1;strokeColor=none;fillColor=none;fontSize=21;" vertex="1" parent="1">
          <mxGeometry x="210" y="310" width="150" height="60" as="geometry" />
        </mxCell>
        <mxCell id="uOadU0x5IdO1Kqkm3Mmz-47" value="10.0.0.1/24" style="text;html=1;align=center;verticalAlign=middle;resizable=0;points=[];autosize=1;strokeColor=none;fillColor=none;fontSize=21;" vertex="1" parent="1">
          <mxGeometry x="115" y="670" width="130" height="40" as="geometry" />
        </mxCell>
        <mxCell id="uOadU0x5IdO1Kqkm3Mmz-48" value="172.20.20.1/24" style="text;html=1;align=center;verticalAlign=middle;resizable=0;points=[];autosize=1;strokeColor=none;fillColor=none;fontSize=21;" vertex="1" parent="1">
          <mxGeometry x="440" y="595" width="160" height="40" as="geometry" />
        </mxCell>
        <mxCell id="uOadU0x5IdO1Kqkm3Mmz-33" value="" style="sketch=0;aspect=fixed;pointerEvents=1;shadow=0;dashed=0;html=1;strokeColor=none;labelPosition=center;verticalLabelPosition=bottom;verticalAlign=top;align=center;fillColor=#00188D;shape=mxgraph.mscae.enterprise.firewall;fontSize=21;" vertex="1" parent="1">
          <mxGeometry x="247.5" y="135.2" width="85" height="74.8" as="geometry" />
        </mxCell>
      </root>
    </mxGraphModel>
  </diagram>
</mxfile>
